<?xml version="1.0"?>
<svg width="44" height="44" xmlns="http://www.w3.org/2000/svg" xmlns:svg="http://www.w3.org/2000/svg">
 <!-- Created with SVG-edit - https://github.com/SVG-Edit/svgedit-->

  <path d="m43.814005,0.413l-0.206,-0.413l-0.413,0.207l-21.081,8.473l-21.286,-8.473l-0.207,-0.207l-0.207,0.413l-0.207,0.62l-0.207,0.413l0.413,0l20.875,8.474l0,11.78l-13.64,21.493l-0.207,0.207l0.413,0.207l0.62,0.413l0.207,0.207l0.207,-0.413l13.226,-20.667l13.02,20.667l0.207,0.413l0.413,-0.207l0.413,-0.413l0.413,-0.207l-0.207,-0.207l-13.639,-21.493l0,-11.78l21.08,-8.473l0.413,0l-0.207,-0.413l-0.206,-0.621z" fill="black" id="svg_1"/>

</svg>