<?xml version="1.0" encoding="UTF-8" standalone="no"?>
<svg
   xmlns:dc="http://purl.org/dc/elements/1.1/"
   xmlns:cc="http://creativecommons.org/ns#"
   xmlns:rdf="http://www.w3.org/1999/02/22-rdf-syntax-ns#"
   xmlns:svg="http://www.w3.org/2000/svg"
   xmlns="http://www.w3.org/2000/svg"
   xmlns:sodipodi="http://sodipodi.sourceforge.net/DTD/sodipodi-0.dtd"
   xmlns:inkscape="http://www.inkscape.org/namespaces/inkscape"
   width="44"
   height="44"
   version="1.1"
   id="svg3"
   sodipodi:docname="icon.svg"
   inkscape:version="0.92.4 (5da689c313, 2019-01-14)">
  <metadata
     id="metadata9">
    <rdf:RDF>
      <cc:Work
         rdf:about="">
        <dc:format>image/svg+xml</dc:format>
        <dc:type
           rdf:resource="http://purl.org/dc/dcmitype/StillImage" />
      </cc:Work>
    </rdf:RDF>
  </metadata>
  <defs
     id="defs7" />
  <sodipodi:namedview
     pagecolor="#ffffff"
     bordercolor="#666666"
     borderopacity="1"
     objecttolerance="10"
     gridtolerance="10"
     guidetolerance="10"
     inkscape:pageopacity="0"
     inkscape:pageshadow="2"
     inkscape:window-width="960"
     inkscape:window-height="1016"
     id="namedview5"
     showgrid="false"
     inkscape:zoom="5.3636364"
     inkscape:cx="22"
     inkscape:cy="22"
     inkscape:window-x="0"
     inkscape:window-y="27"
     inkscape:window-maximized="0"
     inkscape:current-layer="svg3" />
  <!-- Created with SVG-edit - https://github.com/SVG-Edit/svgedit-->
  <path
     d="m43.814005,0.413l-0.206,-0.413l-0.413,0.207l-21.081,8.473l-21.286,-8.473l-0.207,-0.207l-0.207,0.413l-0.207,0.62l-0.207,0.413l0.413,0l20.875,8.474l0,11.78l-13.64,21.493l-0.207,0.207l0.413,0.207l0.62,0.413l0.207,0.207l0.207,-0.413l13.226,-20.667l13.02,20.667l0.207,0.413l0.413,-0.207l0.413,-0.413l0.413,-0.207l-0.207,-0.207l-13.639,-21.493l0,-11.78l21.08,-8.473l0.413,0l-0.207,-0.413l-0.206,-0.621z"
     fill="black"
     id="svg_1"
     style="fill:#c5986a;fill-opacity:1" />
</svg>
